<?xml version="1.0" encoding="UTF-8"?>
<svg version="1.1" xmlns="http://www.w3.org/2000/svg" width="2000" height="2000">
<path d="M0 0 C3.84582289 0.00460742 7.69132761 -0.00222424 11.53710938 -0.02050781 C47.16668815 -0.1879983 82.64374928 1.42948773 118.05078125 5.56567383 C119.39769547 5.7190773 119.39769547 5.7190773 120.77182007 5.87557983 C186.88484425 13.44544651 252.33312958 27.52013281 315.55078125 48.31567383 C316.34081543 48.57435242 317.13084961 48.83303101 317.94482422 49.09954834 C379.17694297 69.1641448 439.25153786 94.55307283 495.05761719 126.88549805 C498.13711798 128.65201936 501.24753461 130.35722518 504.36401367 132.05737305 C536.5104791 149.63618154 567.58895407 170.32481942 596.98828125 192.19067383 C597.77630127 192.77453857 598.56432129 193.35840332 599.3762207 193.95996094 C612.41812403 203.64841839 625.24074173 213.56244091 637.79492188 223.87573242 C639.36013717 225.15933084 640.93159825 226.43530454 642.50390625 227.71020508 C652.97492771 236.20642863 663.18499779 244.98554205 673.12109375 254.10083008 C675.1559354 255.955742 677.21399372 257.76996181 679.30078125 259.56567383 C692.19476215 270.82000736 704.30609879 282.91158871 716.38769531 295.0222168 C719.07111981 297.71105341 721.75991917 300.39443339 724.44921875 303.07739258 C726.18131068 304.81014458 727.91309279 306.54320636 729.64453125 308.27661133 C730.43629761 309.06635345 731.22806396 309.85609558 732.04382324 310.66976929 C736.20092653 314.84430056 740.20473761 319.09469045 744.04043579 323.56721497 C746.42428962 326.3268951 748.93120448 328.9689995 751.42578125 331.62817383 C755.96426649 336.50152932 760.24426922 341.5187136 764.4140625 346.71411133 C766.50960619 349.26554112 768.6904128 351.69894156 770.92578125 354.12817383 C774.90761712 358.50268209 778.56820208 363.06096457 782.18969727 367.73217773 C785.15123609 371.54881951 788.17037954 375.307791 791.24316406 379.03540039 C798.45326602 387.79269723 805.22020926 396.8307788 811.87597656 406.0144043 C813.39775839 408.10541239 814.93528803 410.18334026 816.48046875 412.25708008 C833.33656893 435.03032668 849.06923809 458.96913937 863.55078125 483.31567383 C864.10878418 484.2520166 864.66678711 485.18835938 865.24169922 486.15307617 C878.10099259 507.80468574 890.03966932 529.92217556 901.55078125 552.31567383 C902.00807617 553.20158203 902.46537109 554.08749023 902.93652344 555.00024414 C941.11805026 629.19170626 967.78312516 709.92549864 1002.86328125 903.87817383 C1002.97645691 905.01961349 1002.97645691 905.01961349 1003.09191895 906.18411255 C1003.64794288 911.88959486 1004.11100206 917.60017879 1004.55078125 923.31567383 C1004.63691681 924.3893219 1004.72305237 925.46296997 1004.8117981 926.56915283 C1006.56923713 948.97082352 1006.8955756 971.3019097 1006.86645508 993.76489258 C1006.86184766 997.61071547 1006.86867932 1001.45622018 1006.88696289 1005.30200195 C1007.05445338 1040.93158073 1005.43696734 1076.40864185 1001.30078125 1111.81567383 C1001.19851227 1112.71361664 1001.09624329 1113.61155945 1000.99087524 1114.53671265 C993.42100857 1180.64973683 979.34632227 1246.09802216 958.55078125 1309.31567383 C958.29210266 1310.10570801 958.03342407 1310.89574219 957.76690674 1311.7097168 C937.70231028 1372.94183555 912.31338225 1433.01643044 879.98095703 1488.82250977 C878.21443572 1491.90201056 876.5092299 1495.01242719 874.80908203 1498.12890625 C857.23027354 1530.27537168 836.54163566 1561.35384665 814.67578125 1590.75317383 C814.0919165 1591.54119385 813.50805176 1592.32921387 812.90649414 1593.14111328 C803.21803669 1606.18301661 793.30401417 1619.00563431 782.99072266 1631.55981445 C781.70712424 1633.12502975 780.43115053 1634.69649083 779.15625 1636.26879883 C770.66002645 1646.73982028 761.88091303 1656.94989037 752.765625 1666.88598633 C750.91071308 1668.92082798 749.09649327 1670.9788863 747.30078125 1673.06567383 C736.04644772 1685.95965473 723.95486637 1698.07099137 711.84423828 1710.15258789 C709.15540167 1712.83601239 706.47202169 1715.52481175 703.7890625 1718.21411133 C702.0563105 1719.94620326 700.32324872 1721.67798536 698.58984375 1723.40942383 C697.80010162 1724.20119019 697.0103595 1724.99295654 696.19668579 1725.80871582 C692.02215452 1729.9658191 687.77176463 1733.96963019 683.29924011 1737.80532837 C680.53955998 1740.1891822 677.89745558 1742.69609706 675.23828125 1745.19067383 C670.36492576 1749.72915906 665.34774148 1754.0091618 660.15234375 1758.17895508 C657.60091396 1760.27449876 655.16751352 1762.45530537 652.73828125 1764.69067383 C648.36377299 1768.67250969 643.8054905 1772.33309466 639.13427734 1775.95458984 C635.31763557 1778.91612866 631.55866408 1781.93527212 627.83105469 1785.00805664 C619.07375785 1792.2181586 610.03567628 1798.98510184 600.85205078 1805.64086914 C598.76104269 1807.16265097 596.68311482 1808.70018061 594.609375 1810.24536133 C571.83612839 1827.10146151 547.89731571 1842.83413067 523.55078125 1857.31567383 C522.61443848 1857.87367676 521.6780957 1858.43167969 520.71337891 1859.0065918 C499.06176934 1871.86588517 476.94427952 1883.80456189 454.55078125 1895.31567383 C453.66487305 1895.77296875 452.77896484 1896.23026367 451.86621094 1896.70141602 C377.67474882 1934.88294283 296.94095644 1961.54801773 102.98828125 1996.62817383 C102.22732147 1996.70362427 101.46636169 1996.77907471 100.68234253 1996.85681152 C94.97686022 1997.41283546 89.26627629 1997.87589464 83.55078125 1998.31567383 C82.47713318 1998.40180939 81.40348511 1998.48794495 80.29730225 1998.57669067 C57.89563156 2000.33412971 35.56454538 2000.66046817 13.1015625 2000.63134766 C9.25573961 2000.62674023 5.41023489 2000.63357189 1.56445312 2000.65185547 C-34.06512565 2000.81934596 -69.54218678 1999.20185992 -104.94921875 1995.06567383 C-105.84716156 1994.96340485 -106.74510437 1994.86113586 -107.67025757 1994.75576782 C-173.78328175 1987.18590115 -239.23156708 1973.11121485 -302.44921875 1952.31567383 C-303.23925293 1952.05699524 -304.02928711 1951.79831665 -304.84326172 1951.53179932 C-366.07538047 1931.46720285 -426.14997536 1906.07827483 -481.95605469 1873.74584961 C-485.03555548 1871.9793283 -488.14597211 1870.27412248 -491.26245117 1868.57397461 C-523.4089166 1850.99516612 -554.48739157 1830.30652823 -583.88671875 1808.44067383 C-584.67473877 1807.85680908 -585.46275879 1807.27294434 -586.2746582 1806.67138672 C-599.31656153 1796.98292927 -612.13917923 1787.06890674 -624.69335938 1776.75561523 C-626.25857467 1775.47201682 -627.83003575 1774.19604311 -629.40234375 1772.92114258 C-639.87336521 1764.42491903 -650.08343529 1755.64580561 -660.01953125 1746.53051758 C-662.0543729 1744.67560565 -664.11243122 1742.86138584 -666.19921875 1741.06567383 C-679.09319965 1729.8113403 -691.20453629 1717.71975895 -703.28613281 1705.60913086 C-705.96955731 1702.92029424 -708.65835667 1700.23691427 -711.34765625 1697.55395508 C-713.07974818 1695.82120308 -714.81153029 1694.0881413 -716.54296875 1692.35473633 C-717.33473511 1691.5649942 -718.12650146 1690.77525208 -718.94226074 1689.96157837 C-723.09936403 1685.7870471 -727.10317511 1681.5366572 -730.93887329 1677.06413269 C-733.32272712 1674.30445256 -735.82964198 1671.66234816 -738.32421875 1669.00317383 C-742.86270399 1664.12981833 -747.14270672 1659.11263405 -751.3125 1653.91723633 C-753.40804369 1651.36580654 -755.5888503 1648.9324061 -757.82421875 1646.50317383 C-761.80605462 1642.12866557 -765.46663958 1637.57038308 -769.08813477 1632.89916992 C-772.04967359 1629.08252815 -775.06881704 1625.32355666 -778.14160156 1621.59594727 C-785.35170352 1612.83865043 -792.11864676 1603.80056886 -798.77441406 1594.61694336 C-800.29619589 1592.52593527 -801.83372553 1590.44800739 -803.37890625 1588.37426758 C-820.23500643 1565.60102097 -835.96767559 1541.66220829 -850.44921875 1517.31567383 C-851.28622314 1515.91115967 -851.28622314 1515.91115967 -852.14013672 1514.47827148 C-864.99943009 1492.82666191 -876.93810682 1470.70917209 -888.44921875 1448.31567383 C-888.90651367 1447.42976563 -889.36380859 1446.54385742 -889.83496094 1445.63110352 C-928.01648776 1371.4396414 -954.68156266 1290.70584902 -989.76171875 1096.75317383 C-989.83716919 1095.99221405 -989.91261963 1095.23125427 -989.99035645 1094.44723511 C-990.54638038 1088.7417528 -991.00943956 1083.03116887 -991.44921875 1077.31567383 C-991.53535431 1076.24202576 -991.62148987 1075.16837769 -991.7102356 1074.06219482 C-993.46767463 1051.66052414 -993.7940131 1029.32943795 -993.76489258 1006.86645508 C-993.76028516 1003.02063219 -993.76711682 999.17512747 -993.78540039 995.3293457 C-993.95289088 959.69976693 -992.33540484 924.2227058 -988.19921875 888.81567383 C-988.04581528 887.46875961 -988.04581528 887.46875961 -987.88931274 886.09463501 C-980.31944607 819.98161083 -966.24475977 754.5333255 -945.44921875 691.31567383 C-945.19054016 690.52563965 -944.93186157 689.73560547 -944.66534424 688.92163086 C-924.60074778 627.68951211 -899.21181975 567.61491722 -866.87939453 511.80883789 C-865.11287322 508.7293371 -863.4076674 505.61892047 -861.70751953 502.50244141 C-844.12871104 470.35597597 -823.44007316 439.27750101 -801.57421875 409.87817383 C-800.69842163 408.6961438 -800.69842163 408.6961438 -799.80493164 407.49023438 C-790.11647419 394.44833104 -780.20245167 381.62571334 -769.88916016 369.0715332 C-768.60556174 367.50631791 -767.32958803 365.93485683 -766.0546875 364.36254883 C-757.55846395 353.89152737 -748.77935053 343.68145729 -739.6640625 333.74536133 C-737.80915058 331.71051968 -735.99493077 329.65246136 -734.19921875 327.56567383 C-722.94488522 314.67169293 -710.85330387 302.56035629 -698.74267578 290.47875977 C-696.05383917 287.79533526 -693.37045919 285.10653591 -690.6875 282.41723633 C-688.954748 280.68514439 -687.22168622 278.95336229 -685.48828125 277.22192383 C-684.69853912 276.43015747 -683.908797 275.63839111 -683.09512329 274.82263184 C-678.92059202 270.66552855 -674.67020213 266.66171747 -670.19767761 262.82601929 C-667.43799748 260.44216546 -664.79589308 257.9352506 -662.13671875 255.44067383 C-657.26336326 250.90218859 -652.24617898 246.62218585 -647.05078125 242.45239258 C-644.49935146 240.35684889 -642.06595102 238.17604228 -639.63671875 235.94067383 C-635.26221049 231.95883796 -630.703928 228.298253 -626.03271484 224.67675781 C-622.21607307 221.71521899 -618.45710158 218.69607554 -614.72949219 215.62329102 C-605.97219535 208.41318905 -596.93411378 201.64624582 -587.75048828 194.99047852 C-585.65948019 193.46869669 -583.58155232 191.93116705 -581.5078125 190.38598633 C-558.73456589 173.52988615 -534.79575321 157.79721699 -510.44921875 143.31567383 C-509.51287598 142.7576709 -508.5765332 142.19966797 -507.61181641 141.62475586 C-485.96020684 128.76546249 -463.84271702 116.82678576 -441.44921875 105.31567383 C-440.56331055 104.85837891 -439.67740234 104.40108398 -438.76464844 103.92993164 C-364.57318632 65.74840482 -283.83939394 39.08332992 -89.88671875 4.00317383 C-89.12575897 3.92772339 -88.36479919 3.85227295 -87.58078003 3.77453613 C-81.87529772 3.2185122 -76.16471379 2.75545302 -70.44921875 2.31567383 C-68.83874664 2.18647049 -68.83874664 2.18647049 -67.19573975 2.05465698 C-44.79406906 0.29721795 -22.46298288 -0.02912052 0 0 Z " fill="#809D8F" transform="translate(993.44921875,-0.315673828125)"/>
<path d="M0 0 C3.84582289 0.00460742 7.69132761 -0.00222424 11.53710938 -0.02050781 C47.16668815 -0.1879983 82.64374928 1.42948773 118.05078125 5.56567383 C119.39769547 5.7190773 119.39769547 5.7190773 120.77182007 5.87557983 C186.88484425 13.44544651 252.33312958 27.52013281 315.55078125 48.31567383 C316.34081543 48.57435242 317.13084961 48.83303101 317.94482422 49.09954834 C379.17694297 69.1641448 439.25153786 94.55307283 495.05761719 126.88549805 C498.13711798 128.65201936 501.24753461 130.35722518 504.36401367 132.05737305 C536.5104791 149.63618154 567.58895407 170.32481942 596.98828125 192.19067383 C597.77630127 192.77453857 598.56432129 193.35840332 599.3762207 193.95996094 C612.41812403 203.64841839 625.24074173 213.56244091 637.79492188 223.87573242 C639.36013717 225.15933084 640.93159825 226.43530454 642.50390625 227.71020508 C652.97492771 236.20642863 663.18499779 244.98554205 673.12109375 254.10083008 C675.1559354 255.955742 677.21399372 257.76996181 679.30078125 259.56567383 C692.19476215 270.82000736 704.30609879 282.91158871 716.38769531 295.0222168 C719.07111981 297.71105341 721.75991917 300.39443339 724.44921875 303.07739258 C726.18131068 304.81014458 727.91309279 306.54320636 729.64453125 308.27661133 C730.43629761 309.06635345 731.22806396 309.85609558 732.04382324 310.66976929 C736.20092653 314.84430056 740.20473761 319.09469045 744.04043579 323.56721497 C746.42428962 326.3268951 748.93120448 328.9689995 751.42578125 331.62817383 C755.96426649 336.50152932 760.24426922 341.5187136 764.4140625 346.71411133 C766.50960619 349.26554112 768.6904128 351.69894156 770.92578125 354.12817383 C774.90761712 358.50268209 778.56820208 363.06096457 782.18969727 367.73217773 C785.15123609 371.54881951 788.17037954 375.307791 791.24316406 379.03540039 C798.45326602 387.79269723 805.22020926 396.8307788 811.87597656 406.0144043 C813.39775839 408.10541239 814.93528803 410.18334026 816.48046875 412.25708008 C833.33656893 435.03032668 849.06923809 458.96913937 863.55078125 483.31567383 C864.10878418 484.2520166 864.66678711 485.18835938 865.24169922 486.15307617 C878.10099259 507.80468574 890.03966932 529.92217556 901.55078125 552.31567383 C902.00807617 553.20158203 902.46537109 554.08749023 902.93652344 555.00024414 C941.11805026 629.19170626 967.78312516 709.92549864 1002.86328125 903.87817383 C1002.97645691 905.01961349 1002.97645691 905.01961349 1003.09191895 906.18411255 C1003.64794288 911.88959486 1004.11100206 917.60017879 1004.55078125 923.31567383 C1004.63691681 924.3893219 1004.72305237 925.46296997 1004.8117981 926.56915283 C1006.56923713 948.97082352 1006.8955756 971.3019097 1006.86645508 993.76489258 C1006.86184766 997.61071547 1006.86867932 1001.45622018 1006.88696289 1005.30200195 C1007.05445338 1040.93158073 1005.43696734 1076.40864185 1001.30078125 1111.81567383 C1001.19851227 1112.71361664 1001.09624329 1113.61155945 1000.99087524 1114.53671265 C993.42100857 1180.64973683 979.34632227 1246.09802216 958.55078125 1309.31567383 C958.29210266 1310.10570801 958.03342407 1310.89574219 957.76690674 1311.7097168 C937.70231028 1372.94183555 912.31338225 1433.01643044 879.98095703 1488.82250977 C878.21443572 1491.90201056 876.5092299 1495.01242719 874.80908203 1498.12890625 C857.23027354 1530.27537168 836.54163566 1561.35384665 814.67578125 1590.75317383 C814.0919165 1591.54119385 813.50805176 1592.32921387 812.90649414 1593.14111328 C803.21803669 1606.18301661 793.30401417 1619.00563431 782.99072266 1631.55981445 C781.70712424 1633.12502975 780.43115053 1634.69649083 779.15625 1636.26879883 C770.66002645 1646.73982028 761.88091303 1656.94989037 752.765625 1666.88598633 C750.91071308 1668.92082798 749.09649327 1670.9788863 747.30078125 1673.06567383 C736.04644772 1685.95965473 723.95486637 1698.07099137 711.84423828 1710.15258789 C709.15540167 1712.83601239 706.47202169 1715.52481175 703.7890625 1718.21411133 C702.0563105 1719.94620326 700.32324872 1721.67798536 698.58984375 1723.40942383 C697.80010162 1724.20119019 697.0103595 1724.99295654 696.19668579 1725.80871582 C692.02215452 1729.9658191 687.77176463 1733.96963019 683.29924011 1737.80532837 C680.53955998 1740.1891822 677.89745558 1742.69609706 675.23828125 1745.19067383 C670.36492576 1749.72915906 665.34774148 1754.0091618 660.15234375 1758.17895508 C657.60091396 1760.27449876 655.16751352 1762.45530537 652.73828125 1764.69067383 C648.36377299 1768.67250969 643.8054905 1772.33309466 639.13427734 1775.95458984 C635.31763557 1778.91612866 631.55866408 1781.93527212 627.83105469 1785.00805664 C619.07375785 1792.2181586 610.03567628 1798.98510184 600.85205078 1805.64086914 C598.76104269 1807.16265097 596.68311482 1808.70018061 594.609375 1810.24536133 C571.83612839 1827.10146151 547.89731571 1842.83413067 523.55078125 1857.31567383 C522.61443848 1857.87367676 521.6780957 1858.43167969 520.71337891 1859.0065918 C499.06176934 1871.86588517 476.94427952 1883.80456189 454.55078125 1895.31567383 C453.66487305 1895.77296875 452.77896484 1896.23026367 451.86621094 1896.70141602 C377.67474882 1934.88294283 296.94095644 1961.54801773 102.98828125 1996.62817383 C102.22732147 1996.70362427 101.46636169 1996.77907471 100.68234253 1996.85681152 C94.97686022 1997.41283546 89.26627629 1997.87589464 83.55078125 1998.31567383 C82.47713318 1998.40180939 81.40348511 1998.48794495 80.29730225 1998.57669067 C57.89563156 2000.33412971 35.56454538 2000.66046817 13.1015625 2000.63134766 C9.25573961 2000.62674023 5.41023489 2000.63357189 1.56445312 2000.65185547 C-34.06512565 2000.81934596 -69.54218678 1999.20185992 -104.94921875 1995.06567383 C-105.84716156 1994.96340485 -106.74510437 1994.86113586 -107.67025757 1994.75576782 C-173.78328175 1987.18590115 -239.23156708 1973.11121485 -302.44921875 1952.31567383 C-303.23925293 1952.05699524 -304.02928711 1951.79831665 -304.84326172 1951.53179932 C-366.07538047 1931.46720285 -426.14997536 1906.07827483 -481.95605469 1873.74584961 C-485.03555548 1871.9793283 -488.14597211 1870.27412248 -491.26245117 1868.57397461 C-523.4089166 1850.99516612 -554.48739157 1830.30652823 -583.88671875 1808.44067383 C-584.67473877 1807.85680908 -585.46275879 1807.27294434 -586.2746582 1806.67138672 C-599.31656153 1796.98292927 -612.13917923 1787.06890674 -624.69335938 1776.75561523 C-626.25857467 1775.47201682 -627.83003575 1774.19604311 -629.40234375 1772.92114258 C-639.87336521 1764.42491903 -650.08343529 1755.64580561 -660.01953125 1746.53051758 C-662.0543729 1744.67560565 -664.11243122 1742.86138584 -666.19921875 1741.06567383 C-679.09319965 1729.8113403 -691.20453629 1717.71975895 -703.28613281 1705.60913086 C-705.96955731 1702.92029424 -708.65835667 1700.23691427 -711.34765625 1697.55395508 C-713.07974818 1695.82120308 -714.81153029 1694.0881413 -716.54296875 1692.35473633 C-717.33473511 1691.5649942 -718.12650146 1690.77525208 -718.94226074 1689.96157837 C-723.09936403 1685.7870471 -727.10317511 1681.5366572 -730.93887329 1677.06413269 C-733.32272712 1674.30445256 -735.82964198 1671.66234816 -738.32421875 1669.00317383 C-742.86270399 1664.12981833 -747.14270672 1659.11263405 -751.3125 1653.91723633 C-753.40804369 1651.36580654 -755.5888503 1648.9324061 -757.82421875 1646.50317383 C-761.80605462 1642.12866557 -765.46663958 1637.57038308 -769.08813477 1632.89916992 C-772.04967359 1629.08252815 -775.06881704 1625.32355666 -778.14160156 1621.59594727 C-785.35170352 1612.83865043 -792.11864676 1603.80056886 -798.77441406 1594.61694336 C-800.29619589 1592.52593527 -801.83372553 1590.44800739 -803.37890625 1588.37426758 C-820.23500643 1565.60102097 -835.96767559 1541.66220829 -850.44921875 1517.31567383 C-851.28622314 1515.91115967 -851.28622314 1515.91115967 -852.14013672 1514.47827148 C-864.99943009 1492.82666191 -876.93810682 1470.70917209 -888.44921875 1448.31567383 C-888.90651367 1447.42976563 -889.36380859 1446.54385742 -889.83496094 1445.63110352 C-928.01648776 1371.4396414 -954.68156266 1290.70584902 -989.76171875 1096.75317383 C-989.83716919 1095.99221405 -989.91261963 1095.23125427 -989.99035645 1094.44723511 C-990.54638038 1088.7417528 -991.00943956 1083.03116887 -991.44921875 1077.31567383 C-991.53535431 1076.24202576 -991.62148987 1075.16837769 -991.7102356 1074.06219482 C-993.46767463 1051.66052414 -993.7940131 1029.32943795 -993.76489258 1006.86645508 C-993.76028516 1003.02063219 -993.76711682 999.17512747 -993.78540039 995.3293457 C-993.95289088 959.69976693 -992.33540484 924.2227058 -988.19921875 888.81567383 C-988.04581528 887.46875961 -988.04581528 887.46875961 -987.88931274 886.09463501 C-980.31944607 819.98161083 -966.24475977 754.5333255 -945.44921875 691.31567383 C-945.19054016 690.52563965 -944.93186157 689.73560547 -944.66534424 688.92163086 C-924.60074778 627.68951211 -899.21181975 567.61491722 -866.87939453 511.80883789 C-865.11287322 508.7293371 -863.4076674 505.61892047 -861.70751953 502.50244141 C-844.12871104 470.35597597 -823.44007316 439.27750101 -801.57421875 409.87817383 C-800.69842163 408.6961438 -800.69842163 408.6961438 -799.80493164 407.49023438 C-790.11647419 394.44833104 -780.20245167 381.62571334 -769.88916016 369.0715332 C-768.60556174 367.50631791 -767.32958803 365.93485683 -766.0546875 364.36254883 C-757.55846395 353.89152737 -748.77935053 343.68145729 -739.6640625 333.74536133 C-737.80915058 331.71051968 -735.99493077 329.65246136 -734.19921875 327.56567383 C-722.94488522 314.67169293 -710.85330387 302.56035629 -698.74267578 290.47875977 C-696.05383917 287.79533526 -693.37045919 285.10653591 -690.6875 282.41723633 C-688.954748 280.68514439 -687.22168622 278.95336229 -685.48828125 277.22192383 C-684.69853912 276.43015747 -683.908797 275.63839111 -683.09512329 274.82263184 C-678.92059202 270.66552855 -674.67020213 266.66171747 -670.19767761 262.82601929 C-667.43799748 260.44216546 -664.79589308 257.9352506 -662.13671875 255.44067383 C-657.26336326 250.90218859 -652.24617898 246.62218585 -647.05078125 242.45239258 C-644.49935146 240.35684889 -642.06595102 238.17604228 -639.63671875 235.94067383 C-635.26221049 231.95883796 -630.703928 228.298253 -626.03271484 224.67675781 C-622.21607307 221.71521899 -618.45710158 218.69607554 -614.72949219 215.62329102 C-605.97219535 208.41318905 -596.93411378 201.64624582 -587.75048828 194.99047852 C-585.65948019 193.46869669 -583.58155232 191.93116705 -581.5078125 190.38598633 C-558.73456589 173.52988615 -534.79575321 157.79721699 -510.44921875 143.31567383 C-509.51287598 142.7576709 -508.5765332 142.19966797 -507.61181641 141.62475586 C-485.96020684 128.76546249 -463.84271702 116.82678576 -441.44921875 105.31567383 C-440.56331055 104.85837891 -439.67740234 104.40108398 -438.76464844 103.92993164 C-364.57318632 65.74840482 -283.83939394 39.08332992 -89.88671875 4.00317383 C-89.12575897 3.92772339 -88.36479919 3.85227295 -87.58078003 3.77453613 C-81.87529772 3.2185122 -76.16471379 2.75545302 -70.44921875 2.31567383 C-68.83874664 2.18647049 -68.83874664 2.18647049 -67.19573975 2.05465698 C-44.79406906 0.29721795 -22.46298288 -0.02912052 0 0 Z M-56.70068359 13.00805664 C-60.87097607 13.35028463 -65.04252992 13.61371107 -69.21875 13.87036133 C-149.38532905 18.96061108 -229.32915427 35.89931673 -305.44921875 61.31567383 C-306.2046698 61.56706116 -306.96012085 61.81844849 -307.73846436 62.07745361 C-342.76762321 73.7538399 -377.16602549 87.30933214 -410.44921875 103.31567383 C-412.78228184 104.42301421 -415.11562647 105.52976157 -417.44921875 106.63598633 C-442.03661662 118.32862409 -466.20883489 130.64643105 -489.59375 144.6159668 C-492.4638227 146.32436678 -495.34505628 148.01223624 -498.23046875 149.69458008 C-509.50522481 156.27909174 -520.56641184 163.10328682 -531.44921875 170.31567383 C-532.27276855 170.85836914 -533.09631836 171.40106445 -533.94482422 171.96020508 C-563.99639684 191.76730446 -592.86206183 213.06453091 -620.69628906 235.88305664 C-622.29303469 237.18802925 -623.89803809 238.48288123 -625.50390625 239.77661133 C-631.14413037 244.33033335 -636.55784993 249.07001396 -641.89453125 253.97583008 C-644.0761969 255.97402231 -646.27933184 257.93716272 -648.51171875 259.87817383 C-652.2682429 263.14703562 -655.98067195 266.46192987 -659.67138672 269.80493164 C-661.36950843 271.33977815 -663.07278434 272.86897667 -664.78491211 274.38818359 C-674.95245796 283.52475789 -684.54429099 293.2585495 -694.19604492 302.93212891 C-696.75865698 305.50046793 -699.32577707 308.06424691 -701.89423084 310.62674236 C-703.89937947 312.628253 -705.90211046 314.63216922 -707.90415001 316.63678932 C-709.30241835 318.03603212 -710.70267027 319.43329184 -712.10298157 320.83049011 C-716.55473963 325.29853354 -720.88126172 329.81487181 -724.98103333 334.609375 C-727.34661226 337.35860851 -729.84342141 339.98335338 -732.32421875 342.62817383 C-736.77979075 347.41735887 -741.00376606 352.33106758 -745.1015625 357.43286133 C-747.84497536 360.80164451 -750.67250721 364.090178 -753.51171875 367.37817383 C-758.28776289 372.92696617 -762.938516 378.54763233 -767.44921875 384.31567383 C-768.19510254 385.26651855 -768.19510254 385.26651855 -768.95605469 386.23657227 C-781.55051688 402.30131242 -793.78651949 418.56086549 -805.44921875 435.31567383 C-805.90651367 435.97003418 -806.36380859 436.62439453 -806.83496094 437.29858398 C-829.4244889 469.65413898 -849.9376817 503.47209262 -868.44921875 538.31567383 C-869.30918457 539.9328833 -869.30918457 539.9328833 -870.18652344 541.58276367 C-891.29751436 581.45088705 -909.81364317 622.63601386 -924.71801758 665.23468018 C-925.49389405 667.44281944 -926.27840144 669.64775823 -927.06445312 671.85229492 C-954.52850882 748.99552966 -972.48554869 829.68716641 -979.44921875 911.31567383 C-979.52440735 912.18357544 -979.59959595 913.05147705 -979.67706299 913.94567871 C-984.02219218 964.63923755 -984.44518352 1016.4859299 -980.60418701 1067.2399292 C-980.44761565 1069.33714679 -980.30095659 1071.43485821 -980.15673828 1073.53295898 C-976.55745253 1125.34191235 -968.57193792 1176.82764619 -956.44921875 1227.31567383 C-956.15207977 1228.55513763 -956.15207977 1228.55513763 -955.84893799 1229.81964111 C-937.38786374 1306.55754055 -909.82606616 1379.80851489 -874.44921875 1450.31567383 C-873.86124512 1451.48888184 -873.27327148 1452.66208984 -872.66748047 1453.87084961 C-865.69990656 1467.68884164 -858.08236545 1481.08071646 -850.18408203 1494.38549805 C-848.49889456 1497.23177162 -846.82908228 1500.08647128 -845.1640625 1502.94458008 C-837.57493962 1515.94121149 -829.63788411 1528.6886709 -821.44921875 1541.31567383 C-820.73378906 1542.41911133 -820.01835938 1543.52254883 -819.28125 1544.65942383 C-801.25805347 1572.02086504 -781.63542341 1598.24609352 -760.87304688 1623.57592773 C-759.59695571 1625.1351571 -758.32734494 1626.69968482 -757.05859375 1628.26489258 C-748.6356208 1638.64211644 -739.9542887 1648.79010052 -730.8984375 1658.62036133 C-728.98685849 1660.72401287 -727.11331068 1662.84756293 -725.2512207 1664.99438477 C-721.6386582 1669.1261188 -717.93170952 1673.15753153 -714.16796875 1677.15161133 C-713.48303345 1677.87859222 -712.79809814 1678.60557312 -712.09240723 1679.35458374 C-704.6302606 1687.23558008 -696.98523146 1694.93091387 -689.30078125 1702.59448242 C-686.91938386 1704.97044057 -684.54348632 1707.35180714 -682.16796875 1709.73364258 C-680.62662316 1711.27432845 -679.08496799 1712.81470467 -677.54296875 1714.35473633 C-676.84699585 1715.05273346 -676.15102295 1715.75073059 -675.43395996 1716.46987915 C-671.48700409 1720.39822404 -667.44125117 1724.15419441 -663.21984863 1727.78659058 C-660.57422912 1730.0712987 -658.01673854 1732.44350881 -655.44921875 1734.81567383 C-650.84219682 1739.05444985 -646.19240411 1743.22987731 -641.44921875 1747.31567383 C-640.97323242 1747.72865723 -640.49724609 1748.14164063 -640.00683594 1748.56713867 C-625.92336846 1760.7857311 -611.44555543 1772.43092691 -596.5859375 1783.69067383 C-594.46062821 1785.3069968 -592.34422434 1786.93427805 -590.23046875 1788.56567383 C-517.19528534 1844.90104906 -435.19284319 1889.85301256 -293.50445557 1942.66186523 C-291.51307797 1943.29535904 -289.52448606 1943.93687728 -287.53662109 1944.58129883 C-249.3238124 1956.94118774 -210.01447986 1966.46535783 -170.44921875 1973.31567383 C-168.96141204 1973.57650042 -167.47361929 1973.8374066 -165.98583984 1974.09838867 C-135.2599394 1979.45659173 -104.35969567 1983.62237671 -73.26171875 1986.06567383 C-72.51004425 1986.12483978 -71.75836975 1986.18400574 -70.98391724 1986.2449646 C-66.55557869 1986.58737293 -62.12600162 1986.89630185 -57.69317627 1987.1746521 C-56.21848379 1987.26732929 -54.74398318 1987.36312205 -53.26971436 1987.46231079 C-35.6323077 1988.62345426 -17.95738927 1988.50305899 -0.29052734 1988.50097656 C3.24175207 1988.50089597 6.77389992 1988.50774468 10.30615234 1988.52148438 C41.26728372 1988.63984072 72.18890293 1987.92469764 102.98828125 1984.50317383 C104.60692578 1984.32886624 106.22557842 1984.15463392 107.84423828 1983.98046875 C111.95131771 1983.53321757 116.05605496 1983.06773583 120.15997314 1982.59240723 C122.49808679 1982.32177315 124.83666884 1982.05548746 127.17529297 1981.78930664 C169.1666303 1976.95899884 210.6231784 1968.81472112 251.55078125 1958.31567383 C252.29463074 1958.12531555 253.03848022 1957.93495728 253.80487061 1957.73883057 C313.33986127 1942.45812225 371.13061595 1921.39048374 426.71014404 1895.18225098 C429.45712343 1893.88896539 432.20964618 1892.60756796 434.9609375 1891.32348633 C456.34067323 1881.28157049 477.17457555 1870.25696405 497.55078125 1858.31567383 C498.60023926 1857.70320801 499.64969727 1857.09074219 500.73095703 1856.4597168 C516.21860804 1847.40966312 531.51110859 1838.09562487 546.55078125 1828.31567383 C547.64777344 1827.60411133 548.74476562 1826.89254883 549.875 1826.15942383 C570.71237822 1812.44220971 590.88632308 1797.65991013 610.55078125 1782.31567383 C611.09476563 1781.89253906 611.63875 1781.4694043 612.19921875 1781.03344727 C630.05410326 1767.13831537 647.46434662 1752.79079895 664.1484375 1737.50317383 C666.21758677 1735.61907042 668.30932051 1733.77112636 670.42578125 1731.94067383 C679.55365347 1723.98161452 688.32099144 1715.6878282 696.79345703 1707.03613281 C699.12745823 1704.66616594 701.38232039 1702.4457512 704.01953125 1700.40942383 C706.90831315 1698.01993756 709.17358375 1695.36126181 711.60546875 1692.51879883 C715.7828966 1687.78773596 720.3806546 1683.44938895 724.87890625 1679.02661133 C729.07440234 1674.87392642 733.09512906 1670.65097228 736.94238281 1666.17358398 C739.36153502 1663.37914739 741.89757639 1660.69853624 744.42578125 1658.00317383 C748.88582481 1653.20918243 753.11387678 1648.29056387 757.21484375 1643.18286133 C759.88953141 1639.8998835 762.65297473 1636.70314244 765.42578125 1633.50317383 C770.83839132 1627.22888443 775.99362392 1620.78640578 781.06298828 1614.2331543 C782.6538997 1612.18277388 784.25578126 1610.14130477 785.859375 1608.10083008 C821.11425195 1563.16152873 852.21767175 1515.11777463 879.22070312 1464.79223633 C880.44371507 1462.51502759 881.67578963 1460.24299018 882.91015625 1457.97192383 C888.66667971 1447.31749414 893.91041385 1436.43358178 899.06201172 1425.47583008 C900.58119008 1422.25112612 902.11463924 1419.0334458 903.6484375 1415.81567383 C916.55533457 1388.56975537 927.81416538 1360.68955107 937.85931396 1332.26641846 C938.56652728 1330.27125166 939.27991704 1328.27838065 939.99462891 1326.28588867 C967.6433035 1249.06536999 984.81180275 1167.65333117 992.23828125 1078.44067383 C992.2993103 1077.67336945 992.36033936 1076.90606506 992.42321777 1076.11550903 C992.83591658 1070.85118501 993.20568317 1065.58483459 993.55078125 1060.31567383 C993.60023895 1059.58726288 993.64969666 1058.85885193 993.70065308 1058.10836792 C994.81055912 1041.29914202 994.75168234 1024.46576143 994.73828125 1007.62817383 C994.73801437 1006.87707966 994.7377475 1006.12598549 994.73747253 1005.35213089 C994.70848529 940.29468704 988.74549558 876.23957381 976.91021729 812.26391602 C976.60122572 810.58909674 976.29697574 808.91340392 975.99365234 807.23754883 C970.87574058 779.04850159 963.52526307 751.21360821 955.53369141 723.7199707 C954.65863915 720.68923831 953.80634645 717.65380223 952.96875 714.61254883 C950.22576456 704.6909539 947.16904099 694.8982297 943.92578125 685.12817383 C943.36697266 683.44340942 943.36697266 683.44340942 942.796875 681.72460938 C940.85497786 675.94945221 938.77514872 670.27318449 936.47119141 664.63330078 C935.31476684 661.72138079 934.31403374 658.77102285 933.32080078 655.80029297 C928.47477259 641.34364133 922.48019466 627.35119605 916.55078125 613.31567383 C915.70820303 611.30531177 914.86574566 609.29489905 914.0234375 607.28442383 C910.42898439 598.75136704 906.70050004 590.35723147 902.46875 582.11645508 C900.51469598 578.29059013 898.6883451 574.40761387 896.85571289 570.52246094 C886.6579824 548.93808405 875.6125515 527.90932577 863.38671875 507.4050293 C861.46821675 504.17674148 859.57035534 500.93696248 857.67578125 497.69458008 C844.99356431 476.04235623 831.67592734 454.89088582 817.08789062 434.46850586 C815.67804107 432.49391034 814.27675254 430.51361948 812.87890625 428.53051758 C806.6103949 419.66158032 800.0991263 410.97929185 793.55078125 402.31567383 C790.4670325 403.67819203 788.47609841 405.18793229 786.1953125 407.65942383 C785.5775293 408.32361328 784.95974609 408.98780273 784.32324219 409.67211914 C783.67645508 410.37949219 783.02966797 411.08686523 782.36328125 411.81567383 C781.69200195 412.54109375 781.02072266 413.26651367 780.32910156 414.01391602 C776.08631573 418.60873231 771.88048101 423.23672166 767.71484375 427.90161133 C765.22159272 430.68289136 762.70163184 433.43904888 760.17578125 436.19067383 C759.716875 436.69083008 759.25796875 437.19098633 758.78515625 437.70629883 C756.40963505 440.29415712 754.03164352 442.87972713 751.65234375 445.46411133 C747.14142931 450.36808026 742.65882954 455.28916838 738.29296875 460.32348633 C736.23577726 462.67588018 734.1448121 464.99602349 732.05078125 467.31567383 C728.7837379 470.93591106 725.55557349 474.58550948 722.35546875 478.26489258 C720.32119984 480.57656179 718.24855815 482.85098813 716.17578125 485.12817383 C713.04655298 488.59097465 710.04577776 492.12246386 707.11328125 495.75317383 C703.25369522 500.52563586 699.17878134 505.04676492 695.0234375 509.56176758 C691.80368606 513.14774667 688.79172949 516.88268875 685.765625 520.63208008 C683.59445298 523.2627594 681.34836768 525.79509807 679.05078125 528.31567383 C675.22907262 532.51296416 671.63603936 536.85277613 668.06640625 541.26489258 C665.1215297 544.83624131 662.09354927 548.32776175 659.05078125 551.81567383 C654.53274573 556.99835565 650.11151111 562.24041997 645.78515625 567.58520508 C643.28919306 570.63534191 640.73530815 573.63145788 638.17578125 576.62817383 C633.87131904 581.67784136 629.74730079 586.84564114 625.67626953 592.08447266 C622.55971999 596.07779377 619.34549503 599.96843041 616.05078125 603.81567383 C611.85836167 608.71411494 607.83832024 613.71989085 603.88232422 618.81054688 C600.23296625 623.48985185 596.46883921 628.06494389 592.67578125 632.62817383 C587.41409917 638.96845768 582.35235948 645.43108637 577.38208008 652.00146484 C573.6373232 656.93693249 569.78863268 661.7728255 565.86328125 666.56567383 C561.21000594 672.2491108 556.66988639 677.99431041 552.21484375 683.83520508 C549.00535494 688.04163672 545.74316815 692.20684986 542.48828125 696.37817383 C537.88508794 702.28509445 533.33809716 708.22492821 528.86328125 714.22973633 C526.09573575 717.9229136 523.29431409 721.58920257 520.48828125 725.25317383 C519.9463916 725.96135254 519.40450195 726.66953125 518.84619141 727.39916992 C516.42079644 730.56847387 513.99460321 733.73715529 511.56542969 736.90356445 C501.16287493 750.46030209 501.16287493 750.46030209 491.12939453 764.29003906 C488.07848928 768.6101362 484.9251785 772.84510488 481.73828125 777.06567383 C475.77376543 784.97266015 469.97103063 792.99037278 464.19189453 801.03344727 C461.48438567 804.79866489 458.76701394 808.55674773 456.05078125 812.31567383 C455.24543945 813.43135742 455.24543945 813.43135742 454.42382812 814.56958008 C451.73240452 818.29815491 449.03765446 822.02423702 446.3359375 825.74536133 C438.88279269 836.01986804 431.56594277 846.38338623 424.30810547 856.79663086 C422.0100163 860.09083536 419.70466461 863.37992141 417.39916992 866.66894531 C414.4465212 870.88229431 411.49851447 875.09888504 408.55078125 879.31567383 C407.88723633 880.26442383 407.22369141 881.21317383 406.54003906 882.19067383 C404.4584537 885.16856536 402.37933176 888.14816339 400.30078125 891.12817383 C399.67574707 892.02189697 399.05071289 892.91562012 398.40673828 893.83642578 C394.43370459 899.53891596 390.54894695 905.29609542 386.70385742 911.08526611 C383.07232582 916.54761877 379.40180371 921.98295915 375.72265625 927.41333008 C363.88874981 944.88983186 352.0725537 962.34559268 340.86962891 980.2355957 C338.82045264 983.46754346 336.68993725 986.64284325 334.55078125 989.81567383 C328.64909119 998.58129423 323.02302613 1007.52159218 317.36962891 1016.44848633 C315.58498468 1019.26175636 313.793805 1022.07073765 312 1024.87817383 C304.66539655 1036.36076947 297.42720938 1047.89802232 290.28417969 1059.50073242 C288.45073295 1062.47814664 286.61414008 1065.45360623 284.77734375 1068.42895508 C280.69167431 1075.05164034 276.61662231 1081.68079776 272.55078125 1088.31567383 C272.20533264 1088.87939697 271.85988403 1089.44312012 271.50396729 1090.02392578 C260.98358768 1107.20000575 250.68147185 1124.49440499 240.54248047 1141.89819336 C238.66414533 1145.12115674 236.78205385 1148.34188861 234.8984375 1151.56176758 C231.44075665 1157.47482609 227.99344793 1163.39386319 224.55078125 1169.31567383 C223.95056152 1170.34724609 223.3503418 1171.37881836 222.73193359 1172.44165039 C215.0258412 1185.69783142 207.44537883 1199.01533058 200.02880859 1212.43579102 C196.65805147 1218.53391693 193.25301321 1224.60897177 189.79321289 1230.65698242 C182.98467147 1242.57219717 176.54622083 1254.6671838 170.15551758 1266.80957031 C165.39111644 1275.85972782 160.57532414 1284.87635458 155.60522461 1293.81591797 C152.49692064 1299.44546106 149.60005416 1305.17084363 146.73893738 1310.92871094 C143.19066551 1318.06302042 139.54000795 1325.14303977 135.8833313 1332.222229 C132.76985369 1338.25434812 129.67026041 1344.29363348 126.56945801 1350.33227539 C125.6572822 1352.10831283 124.74422654 1353.88389831 123.83105469 1355.65942383 C114.54157979 1373.76878254 106.1144084 1392.24831467 98.89697266 1411.28466797 C97.3119849 1415.44466442 95.59480464 1419.48211392 93.67578125 1423.50317383 C90.82842449 1429.49480424 88.43620908 1435.62709651 86.05078125 1441.81567383 C83.29856273 1448.9531204 80.43355121 1455.92792298 77.13842773 1462.83105469 C75.37222426 1466.70757664 73.7814558 1470.62883504 72.21484375 1474.58911133 C71.50099527 1476.38334061 70.78703837 1478.17752675 70.07299805 1479.97167969 C69.67519135 1480.97286835 69.27738464 1481.97405701 68.86752319 1483.00558472 C66.59517348 1488.71792652 64.31191781 1494.42591241 62.02981567 1500.13436317 C61.1639322 1502.30038665 60.2982475 1504.46648947 59.43261719 1506.63261414 C37.82095517 1560.71157304 37.82095517 1560.71157304 27.16685486 1586.88206482 C24.85910371 1592.55228102 22.5612239 1598.22646552 20.265625 1603.90161133 C19.89803574 1604.81035004 19.53044647 1605.71908875 19.15171814 1606.65536499 C18.03467325 1609.41710794 16.91771768 1612.17888701 15.80078125 1614.94067383 C10.68436262 1627.59162917 5.54876478 1640.23421789 0.37670898 1652.86254883 C-2.38947009 1659.64162066 -5.06776263 1666.45124564 -7.71435547 1673.27783203 C-23.9736219 1715.14837344 -23.9736219 1715.14837344 -38.44921875 1722.31567383 C-48.1857791 1725.67669288 -60.01794531 1726.08854216 -69.4609375 1721.58129883 C-74.59322927 1718.31437833 -76.85040403 1714.13396913 -78.44921875 1708.31567383 C-80.47224148 1687.63849965 -75.50124157 1666.1371863 -72.390625 1645.76098633 C-64.73990398 1595.64260343 -58.98326059 1545.50874722 -54.50189209 1495.01454163 C-53.90510905 1488.30810334 -53.29086477 1481.60389085 -52.64428711 1474.90209961 C-51.35340085 1461.49972163 -50.09377152 1448.11722467 -49.48266602 1434.66333008 C-49.31080091 1430.90591276 -49.11352922 1427.1498389 -48.9140625 1423.39379883 C-48.87582367 1422.67341431 -48.83758484 1421.95302979 -48.79818726 1421.21081543 C-48.46472481 1415.15914846 -47.89146993 1409.15959162 -47.19897461 1403.140625 C-46.59927678 1397.62375671 -46.24309883 1392.10954901 -45.94921875 1386.56958008 C-45.90724365 1385.77877045 -45.86526855 1384.98796082 -45.82202148 1384.17318726 C-45.6142723 1380.19578115 -45.41804769 1376.21808943 -45.234375 1372.23950195 C-45.16021968 1370.74535818 -45.08600331 1369.25121743 -45.01171875 1367.75708008 C-44.95113281 1366.44425049 -44.89054688 1365.1314209 -44.828125 1363.77880859 C-44.5912339 1360.24080678 -44.06460526 1356.79441743 -43.48838806 1353.29632568 C-42.49540288 1346.92564786 -41.88879047 1340.59149143 -41.44360352 1334.16210938 C-41.36034821 1333.02121353 -41.2770929 1331.88031769 -41.1913147 1330.70484924 C-40.91909926 1326.95439187 -40.65461769 1323.20343705 -40.390625 1319.45239258 C-40.19920832 1316.78015326 -40.00746837 1314.10793867 -39.81541443 1311.43574524 C-39.41244212 1305.81680454 -39.01388805 1300.19756334 -38.61791992 1294.578125 C-38.22045048 1288.93811937 -37.81828532 1283.29847695 -37.41088867 1277.65917969 C-34.75293533 1240.8563765 -32.43010308 1204.05561249 -30.59347534 1167.20088196 C-30.36451037 1162.62146149 -30.13010775 1158.04231949 -29.89648438 1153.46313477 C-29.64125419 1148.45695878 -29.38888413 1143.45069996 -29.14881897 1138.44377136 C-28.82314766 1131.66481089 -28.49601291 1124.88776267 -28.06422043 1118.11460495 C-25.93441904 1084.61519502 -26.07370353 1051.0792759 -26.07899743 1017.52800101 C-26.07829323 1010.97218313 -26.05501887 1004.41657897 -26.02712595 997.86082828 C-26.00075652 991.42486244 -25.99025375 984.98899026 -25.9915241 978.55297101 C-25.99202545 974.75604215 -25.98680803 970.95937509 -25.965168 967.16250229 C-25.87731647 950.64528276 -26.59027235 934.86504623 -30.00602341 918.65243912 C-30.70009186 914.99293527 -31.04144762 911.33626892 -31.38671875 907.62817383 C-33.28486125 889.82573373 -37.76726811 872.17511653 -49.44921875 858.31567383 C-50.10921875 857.32567383 -50.76921875 856.33567383 -51.44921875 855.31567383 C-58.58865048 855.61377119 -64.15120993 856.93765091 -70.44921875 860.31567383 C-71.45082031 860.83967773 -71.45082031 860.83967773 -72.47265625 861.37426758 C-85.68294382 868.91927372 -93.15774388 881.97641339 -100.55322266 894.73046875 C-104.06437006 900.75286988 -107.84810732 906.54056874 -111.75390625 912.31176758 C-116.01297031 918.60812106 -120.11942482 925.00499721 -124.25 931.38598633 C-126.16895593 934.35004218 -128.09971554 937.30495019 -130.0546875 940.24536133 C-138.58448181 953.13784873 -146.3594167 966.48889465 -154.19976807 979.8067627 C-156.24044035 983.27216113 -158.29121097 986.73062402 -160.3671875 990.17504883 C-167.84052645 1002.60998445 -174.58555032 1015.44782669 -181.36567307 1028.26953125 C-182.43996099 1030.29819168 -183.51802912 1032.32481041 -184.59631348 1034.35134888 C-190.85559164 1046.14657287 -196.87838235 1058.05172627 -202.83105469 1070.00418091 C-204.49605344 1073.34720976 -206.16373569 1076.6888887 -207.83203125 1080.03027344 C-211.37337846 1087.12426805 -214.91157304 1094.21983292 -218.44921875 1101.31567383 C-222.5561837 1109.55346028 -226.66458324 1117.79052689 -230.77636719 1126.02590942 C-232.40076998 1129.28108626 -234.02271564 1132.53747891 -235.64453125 1135.79394531 C-240.73260869 1145.99475388 -245.87829635 1156.15633823 -251.23228455 1166.22062683 C-254.35384676 1172.08993358 -257.2665216 1178.03972004 -260.07421875 1184.06567383 C-263.06192871 1190.3977726 -266.09765792 1196.66831632 -269.44921875 1202.81567383 C-272.6361713 1208.66432552 -275.53254089 1214.61432258 -278.37695312 1220.63598633 C-284.04366974 1232.55319676 -289.9138913 1244.36292499 -295.8321991 1256.15679932 C-297.66117655 1259.80169157 -299.48750051 1263.44790285 -301.31311035 1267.09448242 C-305.5162885 1275.48897939 -309.72354779 1283.88142906 -313.93090057 1292.27383423 C-317.79790657 1299.98745891 -321.66396058 1307.70155726 -325.52674055 1315.41729927 C-327.61370671 1319.58559217 -329.70380733 1323.75230363 -331.79455566 1327.91870117 C-337.59958053 1339.50315009 -343.32571675 1351.11778209 -348.87175751 1362.82879639 C-352.28146709 1370.0224769 -355.89142383 1377.07303946 -359.69921875 1384.06567383 C-360.32272217 1385.2183374 -360.94622559 1386.37100098 -361.58862305 1387.55859375 C-363.20796171 1390.54830052 -364.83605734 1393.53314049 -366.46697998 1396.51654053 C-367.45480171 1398.32589995 -368.43902384 1400.13717579 -369.42236328 1401.94897461 C-384.12820759 1429.02180589 -384.12820759 1429.02180589 -392.44921875 1440.31567383 C-393.07441406 1441.16645508 -393.69960938 1442.01723633 -394.34375 1442.89379883 C-399.85546927 1449.7167271 -406.92290939 1454.01365321 -414.44921875 1458.31567383 C-415.47982422 1458.92475586 -415.47982422 1458.92475586 -416.53125 1459.54614258 C-424.16400221 1463.21606633 -436.46631045 1462.54542748 -444.51171875 1460.19067383 C-454.3976661 1456.12900554 -459.82659192 1448.99621031 -464.30078125 1439.62036133 C-467.3460899 1430.85733032 -467.78361925 1421.89787353 -467.85546875 1412.69458008 C-467.87623978 1410.86510582 -467.87623978 1410.86510582 -467.89743042 1408.99867249 C-467.93238926 1404.95836377 -467.94533306 1400.91860101 -467.94921875 1396.87817383 C-467.95142803 1395.8276244 -467.95142803 1395.8276244 -467.95368195 1394.75585175 C-468.01664446 1357.77766273 -464.93575249 1321.10335178 -461.44921875 1284.31567383 C-461.31772679 1282.9212464 -461.18625656 1281.52681692 -461.05480957 1280.13238525 C-459.4395322 1263.04027066 -457.67633552 1245.96564629 -455.83392334 1228.89666748 C-455.29834345 1223.91126251 -454.77332047 1218.92476029 -454.24758911 1213.93830872 C-453.71808778 1208.92721265 -453.18315223 1203.91670962 -452.64624023 1198.90640259 C-452.39512549 1196.56144927 -452.14507798 1194.21638134 -451.89624023 1191.8711853 C-450.68961227 1180.53935229 -449.37643114 1169.26487929 -447.52011108 1158.01972961 C-446.21040558 1150.04338376 -445.28403753 1142.0346852 -444.38671875 1134.00317383 C-444.1437227 1131.84948978 -443.89943184 1129.69596905 -443.65296936 1127.54267883 C-443.43134639 1125.60361583 -443.21344061 1123.66412896 -442.99584961 1121.72460938 C-442.41785038 1116.87128662 -441.70326511 1112.03790635 -441.00559998 1107.2006073 C-437.51536327 1082.83001966 -434.42377229 1058.40972792 -431.48428345 1033.96746826 C-430.42014381 1025.12039633 -429.3447177 1016.27469008 -428.26953125 1007.42895508 C-428.15695543 1006.50229538 -428.04437962 1005.57563568 -427.92839241 1004.62089539 C-425.22018532 982.33837407 -422.43948265 960.06497586 -419.65013504 937.7924881 C-419.26208658 934.69361126 -418.87427792 931.5947045 -418.48654175 928.49578857 C-416.17404504 910.01463991 -413.8585578 891.53388178 -411.52161217 873.05580711 C-408.9389703 852.62994139 -406.35992471 832.21228733 -404.22576904 811.73406982 C-402.46737791 794.88461578 -400.3692053 778.0779426 -398.26171875 761.26904297 C-395.45971533 738.84053779 -392.8963772 716.38487781 -390.32226562 693.92929077 C-389.72692745 688.73585351 -389.13075119 683.54251328 -388.53369141 678.34927368 C-388.45632712 677.67634804 -388.37896284 677.00342241 -388.29925418 676.31010509 C-388.22121971 675.63135302 -388.14318525 674.95260095 -388.0627861 674.25328064 C-386.01363006 656.42937443 -383.97147196 638.60467163 -381.93302917 620.7795372 C-381.56608161 617.57094061 -381.19893504 614.36236687 -380.83161926 611.15381241 C-376.75680296 575.55895871 -372.70259566 539.96251981 -368.85098386 504.3427217 C-368.62607136 502.26308011 -368.40089969 500.18346673 -368.17565727 498.10386086 C-366.78046598 485.22019164 -365.39190713 472.33585749 -364.02693748 459.448946 C-353.59987547 361.16352491 -353.59987547 361.16352491 -339.6640625 348.72192383 C-332.32677848 342.95388552 -326.00977228 340.67746983 -316.62109375 340.89379883 C-312.08753516 341.49678445 -308.69464606 343.0787647 -305.44921875 346.31567383 C-302.16193327 351.60798986 -303.08435609 357.89811069 -303.109375 363.91723633 C-303.11034746 364.6268816 -303.11131992 365.33652687 -303.11232185 366.06767654 C-303.18510717 387.4917332 -304.98023409 408.84516259 -306.61936951 430.19392776 C-306.89001267 433.73375601 -307.15607106 437.27390153 -307.42077637 440.81417847 C-310.0566374 476.02789058 -312.99610638 511.21166232 -316.19921875 546.37817383 C-316.29185375 547.39765862 -316.38448875 548.4171434 -316.47993088 549.46752167 C-318.64204633 573.23729724 -320.98127809 596.97734736 -323.69412231 620.69074631 C-324.29913498 625.98050849 -324.89183122 631.27154328 -325.47753906 636.56347656 C-325.56352545 637.34034915 -325.64951183 638.11722174 -325.73810387 638.91763592 C-325.91312461 640.49910674 -326.08813972 642.08057819 -326.26314926 643.66205025 C-327.0699918 650.94300122 -327.8844398 658.22310742 -328.69921875 665.50317383 C-328.79414864 666.35151039 -328.88907852 667.19984695 -328.98688507 668.07389069 C-332.49331432 699.38783798 -336.25135344 730.66443777 -340.1685791 761.92945862 C-341.31110721 771.09395944 -342.37750556 780.26613415 -343.42440796 789.44198608 C-344.35537361 797.57775448 -345.37117339 805.69796409 -346.44921875 813.81567383 C-347.51165575 821.91432548 -348.54810921 830.0122345 -349.43920898 838.13183594 C-350.97266438 852.08152063 -352.88854542 865.96907288 -354.81945801 879.86810303 C-358.68910301 907.75585172 -362.34107827 935.67213694 -366.00952148 963.58691406 C-366.37863297 966.3952315 -366.74775884 969.20354704 -367.11690521 972.01185989 C-367.36170464 973.87448802 -367.6064303 975.73712585 -367.85108185 977.59977341 C-369.62849558 991.13040985 -371.42810793 1004.65796306 -373.23860168 1018.18420982 C-375.28862449 1033.50336972 -377.30778583 1048.82420998 -379.18023682 1064.16629028 C-381.18206426 1080.54342082 -383.29104618 1096.90070619 -385.62524414 1113.23388672 C-389.09812511 1137.62721785 -392.07515533 1162.09497346 -395.13365173 1186.54295731 C-395.30455352 1187.90894277 -395.47554574 1189.27491692 -395.6466217 1190.64088058 C-398.01900965 1209.58332573 -400.32748538 1228.53144849 -402.49920654 1247.49810791 C-403.75809631 1258.49029505 -405.07814397 1269.46976687 -406.51171875 1280.44067383 C-406.74955078 1282.26804077 -406.74955078 1282.26804077 -406.9921875 1284.13232422 C-408.314475 1294.28724836 -408.314475 1294.28724836 -408.72454834 1297.41711426 C-409.30268944 1301.83329429 -409.87071454 1306.2505944 -410.42672729 1310.6696167 C-410.60408321 1312.0664162 -410.78468052 1313.46280921 -410.96902466 1314.85870361 C-411.91718488 1322.05012575 -412.64060041 1329.21987646 -412.80859375 1336.47192383 C-412.83920898 1337.66624023 -412.86982422 1338.86055664 -412.90136719 1340.09106445 C-412.35759539 1343.96910869 -411.230162 1345.60384575 -408.44921875 1348.31567383 C-404.9586981 1348.9840714 -403.21496803 1348.76214459 -400.14453125 1346.97192383 C-396.1065359 1342.99245015 -393.8608025 1338.25296466 -391.26171875 1333.25317383 C-390.69074463 1332.17624268 -390.11977051 1331.09931152 -389.53149414 1329.98974609 C-387.82728788 1326.77026628 -386.1375925 1323.54347717 -384.44921875 1320.31567383 C-383.56759547 1318.64837779 -382.68489431 1316.98165095 -381.80078125 1315.31567383 C-380.23180081 1312.35496672 -378.67097642 1309.39022552 -377.11902428 1306.42055893 C-375.32345907 1302.98600598 -373.52450108 1299.55326371 -371.7232151 1296.12170792 C-364.87645522 1283.05943134 -358.18730229 1269.92693893 -351.60693359 1256.72875977 C-350.58709989 1254.68716557 -349.5670795 1252.64566461 -348.54689026 1250.60424805 C-346.37694627 1246.26123648 -344.20823858 1241.91761082 -342.04053879 1237.5734787 C-338.60298885 1230.68467508 -335.16225797 1223.7974632 -331.72109985 1216.91046143 C-326.89038826 1207.24174539 -322.06079277 1197.57247303 -317.23242188 1187.90258789 C-316.92781645 1187.29254922 -316.62321102 1186.68251055 -316.30937512 1186.05398586 C-314.14761632 1181.7245685 -311.98591198 1177.39512394 -309.82421875 1173.06567383 C-307.35127611 1168.11285481 -304.8783066 1163.16004921 -302.40527344 1158.20727539 C-301.9480317 1157.29154973 -301.9480317 1157.29154973 -301.48155276 1156.35732457 C-296.37265678 1146.12577867 -291.26213104 1135.89504787 -286.15051997 1125.6648581 C-282.73941873 1118.83771624 -279.3302614 1112.00960853 -275.9226644 1105.18071699 C-273.79403454 1100.91592845 -271.66369746 1096.65199432 -269.53292656 1092.38827515 C-268.55596432 1090.43249994 -267.57968469 1088.47638354 -266.60419273 1086.51987457 C-261.05428358 1075.38964815 -255.40084635 1064.32503891 -249.57205963 1053.3380518 C-246.83941797 1048.18118696 -244.22726905 1042.96690274 -241.64453125 1037.73364258 C-240.63813142 1035.708197 -239.63161747 1033.68280812 -238.625 1031.6574707 C-237.10138636 1028.58560607 -235.57912168 1025.51308791 -234.05908203 1022.43945312 C-227.25230707 1008.68633904 -220.19751951 995.11218516 -212.76133728 981.68832397 C-211.46001186 979.33519057 -210.16821477 976.97707881 -208.87963867 974.61694336 C-198.5219748 955.65334306 -187.47439232 937.02270097 -175.55419922 918.99975586 C-173.98379812 916.60633412 -172.4679701 914.17960246 -170.94921875 911.75317383 C-166.32192412 904.46764611 -161.37414002 897.40154529 -156.44921875 890.31567383 C-155.87123535 889.48165039 -155.29325195 888.64762695 -154.69775391 887.78833008 C-152.86805599 885.14940869 -151.03426896 882.51337559 -149.19921875 879.87817383 C-148.63323975 879.06227783 -148.06726074 878.24638184 -147.48413086 877.40576172 C-128.11230351 849.67325353 -104.88635276 823.38093457 -72.44921875 811.31567383 C-71.53269531 810.97407227 -70.61617187 810.6324707 -69.671875 810.28051758 C-62.90484421 808.19312644 -56.22456586 808.04374927 -49.19921875 808.00317383 C-48.26400391 807.99753418 -47.32878906 807.99189453 -46.36523438 807.98608398 C-32.45924926 808.13207208 -19.80689254 812.98123797 -9.44921875 822.31567383 C-8.39734375 823.41202148 -8.39734375 823.41202148 -7.32421875 824.53051758 C-5.63928704 826.54552121 -5.63928704 826.54552121 -3.44921875 826.31567383 C-3.18367187 826.88672852 -2.918125 827.4577832 -2.64453125 828.04614258 C-1.38747417 830.43290781 0.067928 832.46318073 1.67578125 834.62817383 C13.18587676 851.01988989 18.93454466 868.93606057 23.12158203 888.34448242 C23.52771337 890.20972953 23.95844385 892.06957107 24.390625 893.92895508 C25.9888144 900.94985678 27.11474151 907.92570441 27.90478516 915.07568359 C28.22893194 917.9816632 28.62204204 920.5294562 29.55078125 923.31567383 C29.85008924 926.29616516 30.09865116 929.26196368 30.3046875 932.24926758 C30.40278717 933.66351768 30.40278717 933.66351768 30.50286865 935.1063385 C34.81917943 999.80276061 33.97474102 1065.19781684 28.65698242 1129.79980469 C27.69612406 1141.58895685 27.06505139 1153.3742752 26.55078125 1165.19067383 C25.77492654 1182.80713971 24.61066911 1200.36782478 23.26268005 1217.9487915 C22.30563823 1230.45522728 21.3956175 1242.96514242 20.48628712 1255.4751215 C20.16266099 1259.9266035 19.8368803 1264.3779196 19.50919342 1268.82910442 C18.29386853 1285.36104659 17.1675137 1301.89397597 16.23118591 1318.44433594 C15.75005145 1326.75478683 15.01032957 1334.97903936 13.98828125 1343.23754883 C13.34830454 1348.7315862 13.11928463 1354.25192498 12.89233398 1359.77612305 C12.86083252 1360.51362793 12.82933105 1361.25113281 12.796875 1362.01098633 C12.77294678 1362.65052246 12.74901855 1363.29005859 12.72436523 1363.94897461 C12.57367799 1366.00349236 12.3274587 1368.05057162 12.06445312 1370.09375 C11.54832261 1374.11151919 11.27884805 1378.12619731 11.0859375 1382.17114258 C11.0295385 1383.26907639 11.0295385 1383.26907639 10.97200012 1384.38919067 C10.89171923 1385.95224322 10.8125988 1387.51535574 10.73455811 1389.07852173 C10.03200969 1403.12436327 9.20894379 1417.15310467 8.16040039 1431.17773438 C7.74100982 1436.91025017 7.45276447 1442.56768975 7.55078125 1448.31567383 C18.35584434 1442.03187827 25.21323162 1434.23767461 30.0859375 1422.73754883 C31.61235405 1419.17183978 33.33316836 1415.76105361 35.11328125 1412.31567383 C37.91980841 1406.76430142 40.21645526 1401.16149711 42.37109375 1395.33129883 C43.78525993 1391.71627801 45.5174143 1388.34252982 47.3046875 1384.90161133 C48.71773497 1381.96920561 49.85417738 1378.99152193 50.98828125 1375.94067383 C53.03653139 1370.45935034 55.48214556 1365.32744525 58.15625 1360.12817383 C59.38291194 1357.65423379 60.43804974 1355.20410798 61.42578125 1352.62817383 C63.42690753 1347.45791696 65.78697669 1342.47545342 68.16918945 1337.47363281 C70.05365497 1333.51027612 71.91145792 1329.53893988 73.70703125 1325.53442383 C92.13543061 1284.51962072 112.28010466 1243.93569911 133.55078125 1204.31567383 C134.69818723 1202.16868299 135.84529863 1200.0215347 136.9921875 1197.87426758 C139.87569606 1192.47973959 142.76590872 1187.08885803 145.66044617 1181.70024109 C147.83429822 1177.6526689 150.00227392 1173.60199399 152.16796875 1169.55004883 C158.72061496 1157.30876184 165.4049534 1145.15595668 172.2734375 1133.08911133 C175.12041066 1128.0861696 177.92873654 1123.06248317 180.72973633 1118.03369141 C187.56234413 1105.77331991 194.56165471 1093.61999449 201.671875 1081.51879883 C203.65862662 1078.13182101 205.63661632 1074.73979174 207.61328125 1071.34692383 C216.75829738 1055.66249938 226.08181845 1040.09609017 235.54589844 1024.60229492 C237.472604 1021.44383044 239.39206782 1018.28110459 241.30859375 1015.11645508 C247.58168316 1004.76381308 253.93556518 994.47103789 260.42578125 984.25317383 C263.33272935 979.67230189 266.20170933 975.06832345 269.06835938 970.4621582 C274.82269051 961.21893453 280.63833394 952.02390837 286.60131836 942.91381836 C289.39862323 938.63735855 292.17186967 934.34858661 294.8984375 930.02661133 C306.72080857 911.3155382 319.14742568 893.0202125 331.56100464 874.69831848 C335.51503136 868.85849663 339.43957391 862.9998354 343.34515381 857.12753296 C346.09026754 853.00118308 348.85841543 848.89298336 351.67578125 844.81567383 C352.11623779 844.17662109 352.55669434 843.53756836 353.01049805 842.87915039 C359.16427083 833.96209594 365.35578654 825.07110983 371.55175781 816.18334961 C372.84332644 814.33054488 374.13437856 812.47737993 375.42480469 810.6237793 C382.13545317 800.98606862 388.90194999 791.39515178 395.79980469 781.89038086 C399.40664284 776.91645238 402.96004137 771.90807843 406.48828125 766.87817383 C412.44632417 758.39889034 418.58994066 750.0619762 424.75976562 741.73608398 C427.14892544 738.50733121 429.52736645 735.27075112 431.90625 732.03442383 C441.94520186 718.38322218 452.12908881 704.84877839 462.41308594 691.38134766 C467.03531577 685.32249365 471.6154024 679.23366734 476.17578125 673.12817383 C483.17930618 663.76136108 490.33216773 654.51737467 497.55078125 645.31567383 C498.04562012 644.68435547 498.54045898 644.05303711 499.05029297 643.40258789 C501.77103437 639.93241517 504.49629825 636.4658286 507.22412109 633.0012207 C509.04034182 630.69367784 510.85451035 628.38452601 512.66845703 626.07519531 C513.58969027 624.90258352 514.5112396 623.73021998 515.43310547 622.55810547 C517.69330896 619.6838467 519.94917881 616.80641324 522.1953125 613.92114258 C527.80392707 606.72891918 533.54108219 599.65709439 539.35864258 592.6328125 C542.98744106 588.24204075 546.55195542 583.81054893 550.05078125 579.31567383 C558.66127931 568.26670572 567.64516143 557.51697143 576.71875 546.84667969 C580.28157524 542.65205907 583.76422185 538.39630395 587.23828125 534.12817383 C590.27576299 530.43393928 593.37150171 526.79092277 596.46923828 523.1472168 C599.32925063 519.77716393 602.14333858 516.37541075 604.92578125 512.94067383 C609.57221832 507.23408712 614.39468151 501.68906063 619.2265625 496.13989258 C622.35370271 492.54799306 625.45584387 488.93532465 628.55078125 485.31567383 C637.1291992 475.29425053 645.71607284 465.28325201 654.57421875 455.50708008 C656.42034686 453.46028587 658.24071409 451.39435826 660.05078125 449.31567383 C664.92221328 443.72587394 669.90973275 438.24032485 674.87890625 432.73754883 C678.29383763 428.95092424 681.70064651 425.15983766 685.05078125 421.31567383 C695.1566746 409.72634659 705.63536519 398.46484539 716.06958008 387.171875 C719.40502222 383.56076759 722.7310498 379.94122514 726.05078125 376.31567383 C727.88387472 374.31545317 729.71716377 372.31541392 731.55078125 370.31567383 C732.06205566 369.75783203 732.57333008 369.19999023 733.10009766 368.62524414 C734.68638261 366.89572256 736.27461186 365.16800514 737.86328125 363.44067383 C738.3428125 362.91731445 738.82234375 362.39395508 739.31640625 361.85473633 C740.01443359 361.09676758 740.01443359 361.09676758 740.7265625 360.32348633 C741.18111816 359.82751953 741.63567383 359.33155273 742.10400391 358.82055664 C743.12523413 357.75831177 744.18703919 356.73437444 745.27490234 355.74047852 C747.18545917 354.03256704 747.18545917 354.03256704 749.55078125 351.31567383 C749.13424046 346.79623392 745.93398637 344.17820193 742.92578125 341.06567383 C741.82208891 339.8997902 740.71921988 338.73312663 739.6171875 337.56567383 C739.08496582 337.00493164 738.55274414 336.44418945 738.00439453 335.86645508 C736.23505534 333.97884296 734.54197591 332.03407229 732.86328125 330.06567383 C729.74091223 326.44949949 726.38510149 323.11016362 722.95703125 319.78442383 C721.07195924 317.85038891 719.32758336 315.90213255 717.578125 313.85083008 C712.76624052 308.30779751 707.5509129 303.16636764 702.35375977 297.98828125 C700.61684525 296.25672683 698.88534236 294.51989024 697.15429688 292.7824707 C692.01690828 287.64195096 686.8746435 282.57584366 681.34155273 277.85693359 C678.15144842 275.1113128 675.11322845 272.20187945 672.05078125 269.31567383 C666.96474265 264.54910845 661.85351262 259.84144822 656.55078125 255.31567383 C655.50626873 254.41751732 654.46202388 253.51904949 653.41796875 252.62036133 C650.40206723 250.02661848 647.37954278 247.44072933 644.35449219 244.85766602 C642.63873809 243.39086811 640.92661032 241.9199335 639.21484375 240.44848633 C632.98921245 235.11558352 626.64439494 229.99208901 620.11328125 225.03442383 C617.51115689 223.0577534 614.93262167 221.05352438 612.36328125 219.03442383 C602.65303045 211.40768433 592.80299048 204.02810022 582.74023438 196.87280273 C580.61640511 195.36234521 578.49743506 193.84527146 576.37890625 192.32739258 C550.64607815 173.95635395 523.99927537 156.99737855 496.55078125 141.31567383 C495.57334961 140.75412598 494.59591797 140.19257813 493.58886719 139.61401367 C467.63457005 124.73085982 441.04543377 111.06543291 413.77099609 98.76831055 C410.74031517 97.40117245 407.7176597 96.01751461 404.6953125 94.63208008 C374.79613282 81.06673484 343.95428196 69.63546487 312.69287109 59.64770508 C308.83856317 58.41418363 305.00106454 57.13333551 301.1640625 55.84692383 C244.85604179 37.25948136 186.22176336 26.1218814 127.55078125 18.31567383 C126.22312667 18.13644414 124.89548801 17.95709641 123.56787109 17.77758789 C109.62669159 15.92195644 95.63163727 14.77486057 81.61328125 13.69067383 C80.41372803 13.59647156 80.41372803 13.59647156 79.18994141 13.50036621 C53.94276695 11.54296885 28.67807235 11.10854123 3.36328125 11.12817383 C2.67418671 11.12829342 1.98509216 11.12841301 1.27511597 11.12853622 C-18.10525455 11.13277469 -37.38068471 11.32436189 -56.70068359 13.00805664 Z " fill="#FEFEFE" transform="translate(993.44921875,-0.315673828125)"/>
</svg>
